<svg xmlns="http://www.w3.org/2000/svg" xmlns:xlink="http://www.w3.org/1999/xlink" width="500" zoomAndPan="magnify" viewBox="0 0 375 374.999991" height="500" preserveAspectRatio="xMidYMid meet" version="1.0"><defs><g/></defs><g fill="#f8f8f8" fill-opacity="1"><g transform="translate(146.890433, 249.893216)"><g><path d="M 60.328125 -111.703125 C 77.242188 -111.703125 90.769531 -106.523438 100.90625 -96.171875 C 111.039062 -85.828125 116.109375 -72.4375 116.109375 -56 C 116.109375 -39.570312 111.195312 -25.867188 101.375 -14.890625 C 91.5625 -3.910156 78.25 1.578125 61.4375 1.578125 C 44.632812 1.578125 31.113281 -3.9375 20.875 -14.96875 C 10.632812 -26 5.515625 -39.734375 5.515625 -56.171875 C 5.515625 -72.609375 10.421875 -85.972656 20.234375 -96.265625 C 30.054688 -106.554688 43.421875 -111.703125 60.328125 -111.703125 Z M 61.359375 -2.046875 C 74.753906 -2.046875 84.941406 -6.898438 91.921875 -16.609375 C 98.910156 -26.328125 102.40625 -39.113281 102.40625 -54.96875 C 102.40625 -70.832031 98.726562 -83.648438 91.375 -93.421875 C 84.019531 -103.191406 73.644531 -108.078125 60.25 -108.078125 C 46.863281 -108.078125 36.675781 -103.242188 29.6875 -93.578125 C 22.707031 -83.921875 19.21875 -71.132812 19.21875 -55.21875 C 19.21875 -39.3125 22.894531 -26.472656 30.25 -16.703125 C 37.601562 -6.929688 47.972656 -2.046875 61.359375 -2.046875 Z M 61.359375 -2.046875 "/></g></g></g><g fill="#f8f8f8" fill-opacity="1"><g transform="translate(102.508254, 223.463489)"><g><path d="M 21.890625 1.4375 C 15.835938 1.4375 10.675781 -0.359375 6.40625 -3.953125 C 2.132812 -7.554688 0 -11.234375 0 -14.984375 C 0 -16.804688 0.523438 -18.289062 1.578125 -19.4375 C 2.640625 -20.59375 4.175781 -21.171875 6.1875 -21.171875 C 8.207031 -21.171875 9.695312 -20.160156 10.65625 -18.140625 C 11.613281 -16.128906 12.140625 -13.921875 12.234375 -11.515625 C 12.335938 -9.117188 13.179688 -6.910156 14.765625 -4.890625 C 16.347656 -2.878906 18.914062 -1.875 22.46875 -1.875 C 32.351562 -1.875 37.296875 -9.503906 37.296875 -24.765625 L 37.296875 -68.265625 C 37.296875 -82.566406 36.578125 -91.253906 35.140625 -94.328125 C 33.984375 -97.015625 31.867188 -98.550781 28.796875 -98.9375 C 27.453125 -99.132812 25.628906 -99.234375 23.328125 -99.234375 L 23.046875 -100.8125 L 61.78125 -100.8125 L 61.5 -99.234375 C 56.695312 -99.234375 53.191406 -98.316406 50.984375 -96.484375 C 48.578125 -94.472656 47.375 -85.066406 47.375 -68.265625 L 47.375 -31.546875 C 47.375 -25.785156 46.796875 -20.789062 45.640625 -16.5625 C 44.492188 -12.332031 43.128906 -9.085938 41.546875 -6.828125 C 39.960938 -4.578125 37.921875 -2.800781 35.421875 -1.5 C 32.929688 -0.207031 30.703125 0.601562 28.734375 0.9375 C 26.765625 1.269531 24.484375 1.4375 21.890625 1.4375 Z M 21.890625 1.4375 "/></g></g></g></svg>