<svg xmlns="http://www.w3.org/2000/svg" xmlns:xlink="http://www.w3.org/1999/xlink" width="500" zoomAndPan="magnify" viewBox="0 0 375 374.999991" height="500" preserveAspectRatio="xMidYMid meet" version="1.0"><defs><g/></defs><g fill="#fbf7f7" fill-opacity="1"><g transform="translate(93.039104, 210.317999)"><g><path d="M 2.777344 0 L 10.179688 0 C 19.894531 0 27.851562 1.851562 35.992188 1.851562 C 64.492188 1.851562 78.003906 -20.910156 78.003906 -46.265625 C 78.003906 -71.617188 64.492188 -94.378906 35.992188 -94.378906 C 27.851562 -94.378906 19.894531 -92.527344 10.179688 -92.527344 L 2.777344 -92.527344 L 2.777344 -91.605469 C 10.734375 -91.605469 11.289062 -85.035156 11.289062 -66.804688 L 11.289062 -25.722656 C 11.289062 -7.496094 10.734375 -0.925781 2.777344 -0.925781 Z M 19.152344 -90.492188 C 24.519531 -92.160156 29.886719 -93.085938 35.902344 -93.085938 C 58.757812 -93.085938 70.042969 -71.523438 70.042969 -46.265625 C 70.042969 -21.003906 58.757812 0.554688 35.902344 0.554688 C 29.886719 0.554688 24.519531 -0.371094 19.152344 -2.035156 Z M 19.152344 -90.492188 "/></g></g></g><g fill="#fbf7f7" fill-opacity="1"><g transform="translate(176.595197, 238.215633)"><g><path d="M 2.328125 -77.605469 L 2.328125 -76.828125 C 9.003906 -76.828125 9.46875 -71.320312 9.46875 -56.03125 L 9.46875 -21.574219 C 9.46875 -6.285156 9.003906 -0.777344 2.328125 -0.777344 L 2.328125 0 L 11.640625 0 C 20.175781 0 25.6875 1.550781 34.6875 1.550781 C 51.21875 1.550781 60.453125 -7.449219 60.453125 -20.875 C 60.453125 -32.671875 50.753906 -40.277344 38.878906 -40.277344 C 31.429688 -40.277344 25.996094 -35.542969 22.738281 -35.542969 C 21.808594 -35.542969 20.488281 -35.777344 20.488281 -37.5625 C 20.488281 -46.175781 55.566406 -44.621094 55.566406 -64.878906 C 55.566406 -75.742188 45.554688 -79.15625 34.613281 -79.15625 C 27.78125 -79.15625 18.160156 -77.605469 11.332031 -77.605469 Z M 16.0625 -75.898438 C 20.566406 -77.292969 25.066406 -78.070312 30.109375 -78.070312 C 39.578125 -78.070312 48.890625 -74.34375 48.890625 -64.722656 C 48.890625 -49.046875 19.710938 -47.570312 19.710938 -37.40625 C 19.710938 -35.542969 21.03125 -34.765625 22.429688 -34.765625 C 27.007812 -34.765625 32.285156 -39.421875 38.800781 -39.421875 C 48.503906 -39.421875 53.78125 -29.644531 53.78125 -20.332031 C 53.78125 -7.449219 44.699219 0.464844 30.265625 0.464844 C 24.523438 0.464844 20.796875 -0.308594 16.0625 -2.019531 Z M 16.0625 -75.898438 "/></g></g></g><g fill="#fbf7f7" fill-opacity="1"><g transform="translate(246.62196, 210.317999)"><g><path d="M -4.625 19.0625 C -3.515625 19.246094 -2.867188 19.429688 -1.386719 19.429688 C 10.546875 19.429688 18.96875 6.847656 18.96875 -6.382812 L 18.96875 -66.804688 C 18.96875 -85.035156 19.523438 -91.605469 27.480469 -91.605469 L 27.480469 -92.527344 L 2.5 -92.527344 L 2.5 -91.605469 C 10.457031 -91.605469 11.011719 -85.035156 11.011719 -66.804688 L 11.011719 -6.199219 C 11.011719 7.863281 6.105469 18.226562 -2.960938 18.226562 C -3.515625 18.226562 -4.441406 18.136719 -4.441406 18.136719 Z M -4.625 19.0625 "/></g></g></g></svg>