<svg xmlns="http://www.w3.org/2000/svg" xmlns:xlink="http://www.w3.org/1999/xlink" width="500" zoomAndPan="magnify" viewBox="0 0 375 374.999991" height="500" preserveAspectRatio="xMidYMid meet" version="1.0"><defs><g/></defs><g fill="#fbf7f7" fill-opacity="1"><g transform="translate(30.419316, 224.811987)"><g><path d="M 4.539062 0 L 16.644531 0 C 32.53125 0 45.542969 3.027344 58.855469 3.027344 C 105.457031 3.027344 127.550781 -34.195312 127.550781 -75.652344 C 127.550781 -117.109375 105.457031 -154.328125 58.855469 -154.328125 C 45.542969 -154.328125 32.53125 -151.304688 16.644531 -151.304688 L 4.539062 -151.304688 L 4.539062 -149.789062 C 17.550781 -149.789062 18.460938 -139.046875 18.460938 -109.242188 L 18.460938 -42.0625 C 18.460938 -12.253906 17.550781 -1.511719 4.539062 -1.511719 Z M 31.320312 -147.976562 C 40.09375 -150.699219 48.871094 -152.210938 58.707031 -152.210938 C 96.078125 -152.210938 114.535156 -116.957031 114.535156 -75.652344 C 114.535156 -34.347656 96.078125 0.90625 58.707031 0.90625 C 48.871094 0.90625 40.09375 -0.605469 31.320312 -3.328125 Z M 31.320312 -147.976562 "/></g></g></g><g fill="#fbf7f7" fill-opacity="1"><g transform="translate(167.050246, 270.430209)"><g><path d="M 3.808594 -126.898438 L 3.808594 -125.628906 C 14.71875 -125.628906 15.480469 -116.621094 15.480469 -91.621094 L 15.480469 -35.277344 C 15.480469 -10.277344 14.71875 -1.269531 3.808594 -1.269531 L 3.808594 0 L 19.035156 0 C 32.992188 0 42.003906 2.539062 56.722656 2.539062 C 83.753906 2.539062 98.855469 -12.183594 98.855469 -34.136719 C 98.855469 -53.425781 82.992188 -65.859375 63.578125 -65.859375 C 51.394531 -65.859375 42.511719 -58.121094 37.179688 -58.121094 C 35.660156 -58.121094 33.5 -58.5 33.5 -61.417969 C 33.5 -75.503906 90.859375 -72.96875 90.859375 -106.085938 C 90.859375 -123.855469 74.488281 -129.4375 56.597656 -129.4375 C 45.429688 -129.4375 29.695312 -126.898438 18.527344 -126.898438 Z M 26.269531 -124.109375 C 33.628906 -126.390625 40.988281 -127.660156 49.238281 -127.660156 C 64.71875 -127.660156 79.945312 -121.570312 79.945312 -105.832031 C 79.945312 -80.199219 32.230469 -77.789062 32.230469 -61.164062 C 32.230469 -58.121094 34.390625 -56.851562 36.675781 -56.851562 C 44.160156 -56.851562 52.789062 -64.464844 63.449219 -64.464844 C 79.3125 -64.464844 87.941406 -48.476562 87.941406 -33.246094 C 87.941406 -12.183594 73.09375 0.761719 49.492188 0.761719 C 40.101562 0.761719 34.007812 -0.507812 26.269531 -3.300781 Z M 26.269531 -124.109375 "/></g></g></g><g fill="#fbf7f7" fill-opacity="1"><g transform="translate(281.557985, 224.811987)"><g><path d="M -7.566406 31.167969 C -5.75 31.472656 -4.691406 31.773438 -2.269531 31.773438 C 17.25 31.773438 31.015625 11.195312 31.015625 -10.441406 L 31.015625 -109.242188 C 31.015625 -139.046875 31.925781 -149.789062 44.9375 -149.789062 L 44.9375 -151.304688 L 4.085938 -151.304688 L 4.085938 -149.789062 C 17.097656 -149.789062 18.003906 -139.046875 18.003906 -109.242188 L 18.003906 -10.136719 C 18.003906 12.859375 9.984375 29.808594 -4.839844 29.808594 C -5.75 29.808594 -7.261719 29.65625 -7.261719 29.65625 Z M -7.566406 31.167969 "/></g></g></g></svg>