<svg xmlns="http://www.w3.org/2000/svg" xmlns:xlink="http://www.w3.org/1999/xlink" width="500" zoomAndPan="magnify" viewBox="0 0 375 374.999991" height="500" preserveAspectRatio="xMidYMid meet" version="1.0"><defs><g/></defs><rect x="-37.5" width="450" fill="#ffffff" y="-37.499999" height="449.999989" fill-opacity="1"/><rect x="-37.5" width="450" fill="#ffffff" y="-37.499999" height="449.999989" fill-opacity="1"/><rect x="-37.5" width="450" fill="#000000" y="-37.499999" height="449.999989" fill-opacity="1"/><g fill="#fbf7f7" fill-opacity="1"><g transform="translate(49.170293, 220.244918)"><g><path d="M 3.984375 0 L 14.605469 0 C 28.546875 0 39.96875 2.65625 51.652344 2.65625 C 92.550781 2.65625 111.9375 -30.007812 111.9375 -66.390625 C 111.9375 -102.773438 92.550781 -135.441406 51.652344 -135.441406 C 39.96875 -135.441406 28.546875 -132.785156 14.605469 -132.785156 L 3.984375 -132.785156 L 3.984375 -131.457031 C 15.402344 -131.457031 16.199219 -122.027344 16.199219 -95.871094 L 16.199219 -36.914062 C 16.199219 -10.753906 15.402344 -1.328125 3.984375 -1.328125 Z M 27.484375 -129.863281 C 35.1875 -132.253906 42.890625 -133.582031 51.519531 -133.582031 C 84.316406 -133.582031 100.515625 -102.640625 100.515625 -66.390625 C 100.515625 -30.140625 84.316406 0.796875 51.519531 0.796875 C 42.890625 0.796875 35.1875 -0.53125 27.484375 -2.921875 Z M 27.484375 -129.863281 "/></g></g></g><g fill="#fbf7f7" fill-opacity="1"><g transform="translate(169.077284, 260.279338)"><g><path d="M 3.339844 -111.367188 L 3.339844 -110.253906 C 12.917969 -110.253906 13.585938 -102.347656 13.585938 -80.40625 L 13.585938 -30.960938 C 13.585938 -9.019531 12.917969 -1.113281 3.339844 -1.113281 L 3.339844 0 L 16.703125 0 C 28.957031 0 36.863281 2.226562 49.78125 2.226562 C 73.5 2.226562 86.753906 -10.691406 86.753906 -29.957031 C 86.753906 -46.886719 72.832031 -57.800781 55.792969 -57.800781 C 45.101562 -57.800781 37.308594 -51.003906 32.628906 -51.003906 C 31.292969 -51.003906 29.402344 -51.339844 29.402344 -53.902344 C 29.402344 -66.261719 79.738281 -64.035156 79.738281 -93.101562 C 79.738281 -108.695312 65.371094 -113.59375 49.667969 -113.59375 C 39.871094 -113.59375 26.058594 -111.367188 16.257812 -111.367188 Z M 23.054688 -108.917969 C 29.511719 -110.921875 35.972656 -112.035156 43.210938 -112.035156 C 56.796875 -112.035156 70.160156 -106.6875 70.160156 -92.878906 C 70.160156 -70.382812 28.285156 -68.269531 28.285156 -53.679688 C 28.285156 -51.003906 30.179688 -49.890625 32.183594 -49.890625 C 38.753906 -49.890625 46.328125 -56.574219 55.683594 -56.574219 C 69.605469 -56.574219 77.175781 -42.542969 77.175781 -29.179688 C 77.175781 -10.691406 64.148438 0.667969 43.433594 0.667969 C 35.191406 0.667969 29.847656 -0.445312 23.054688 -2.894531 Z M 23.054688 -108.917969 "/></g></g></g><g fill="#fbf7f7" fill-opacity="1"><g transform="translate(269.569, 220.244918)"><g><path d="M -6.640625 27.351562 C -5.046875 27.617188 -4.117188 27.882812 -1.992188 27.882812 C 15.136719 27.882812 27.21875 9.824219 27.21875 -9.160156 L 27.21875 -95.871094 C 27.21875 -122.027344 28.015625 -131.457031 39.4375 -131.457031 L 39.4375 -132.785156 L 3.585938 -132.785156 L 3.585938 -131.457031 C 15.003906 -131.457031 15.800781 -122.027344 15.800781 -95.871094 L 15.800781 -8.898438 C 15.800781 11.285156 8.765625 26.160156 -4.25 26.160156 C -5.046875 26.160156 -6.375 26.027344 -6.375 26.027344 Z M -6.640625 27.351562 "/></g></g></g></svg>